{"accessors" : [{"bufferView" : 0, "byteOffset" : 0, "componentType" : 5123, "count" : 6396, "type" : "SCALAR", "max" : [3205], "min" : [0]}, {"bufferView" : 1, "byteOffset" : 0, "componentType" : 5126, "count" : 3206, "type" : "VEC3", "max" : [3.093754768371582, 12.442662239074707, 0.3499999940395355], "min" : [-3.115781784057617, 0.5440548658370972, -0.2849999964237213], "name" : "POSITION"}, {"bufferView" : 1, "byteOffset" : 12, "componentType" : 5126, "count" : 3206, "type" : "VEC3", "max" : [1.0000044107437134, 1.0000044107437134, 1.0000044107437134], "min" : [-1.0000044107437134, -1.0000044107437134, -1.0000044107437134], "name" : "NORMAL"}, {"bufferView" : 1, "byteOffset" : 24, "componentType" : 5126, "count" : 3206, "type" : "VEC2", "max" : [498.2396545410156, 499.2396240234375], "min" : [-498.2396240234375, -524.24462890625], "name" : "TEXCOORD_0"}, {"bufferView" : 0, "byteOffset" : 12792, "componentType" : 5123, "count" : 5076, "type" : "SCALAR", "max" : [2548], "min" : [0]}, {"bufferView" : 2, "byteOffset" : 0, "componentType" : 5126, "count" : 2549, "type" : "VEC3", "max" : [2.4700889587402344, 8.18051815032959, 0.3499999940395355], "min" : [-2.486072540283203, 3.269500494003296, -0.2849999964237213], "name" : "POSITION"}, {"bufferView" : 2, "byteOffset" : 12, "componentType" : 5126, "count" : 2549, "type" : "VEC3", "max" : [1.0000044107437134, 1.0000044107437134, 1.0000044107437134], "min" : [-1.0000044107437134, -1.0000044107437134, -1.0000044107437134], "name" : "NORMAL"}, {"bufferView" : 2, "byteOffset" : 24, "componentType" : 5126, "count" : 2549, "type" : "VEC2", "max" : [498.2396240234375, 499.2396240234375], "min" : [-498.2396240234375, -439.2964172363281], "name" : "TEXCOORD_0"}, {"bufferView" : 0, "byteOffset" : 22944, "componentType" : 5123, "count" : 5085, "type" : "SCALAR", "max" : [2550], "min" : [0]}, {"bufferView" : 3, "byteOffset" : 0, "componentType" : 5126, "count" : 2551, "type" : "VEC3", "max" : [6.072792053222656, 12.042096138000488, 0.2865000069141388], "min" : [-6.079999923706055, 0, -0.2214999943971634], "name" : "POSITION"}, {"bufferView" : 3, "byteOffset" : 12, "componentType" : 5126, "count" : 2551, "type" : "VEC3", "max" : [1.0000044107437134, 1.0000044107437134, 1.0000044107437134], "min" : [-1.0000044107437134, -1.0000044107437134, -1.0000044107437134], "name" : "NORMAL"}, {"bufferView" : 3, "byteOffset" : 24, "componentType" : 5126, "count" : 2551, "type" : "VEC2", "max" : [495.7396240234375, 496.7396240234375], "min" : [-495.7396240234375, -619.3113403320312], "name" : "TEXCOORD_0"}], "asset" : {"generator" : "Aspose.3D 24.4.1", "version" : "2.0"}, "buffers" : [{"uri" : "data:application/octet-stream;base64,", "byteLength" : 298924}], "bufferViews" : [{"buffer" : 0, "byteOffset" : 0, "byteLength" : 33116, "target" : 34963}, {"buffer" : 0, "byteOffset" : 33120, "byteLength" : 102592, "byteStride" : 32, "target" : 34962}, {"buffer" : 0, "byteOffset" : 135716, "byteLength" : 81568, "byteStride" : 32, "target" : 34962}, {"buffer" : 0, "byteOffset" : 217288, "byteLength" : 81632, "byteStride" : 32, "target" : 34962}], "materials" : [{"name" : "_auto_1", "pbrMetallicRoughness" : {"baseColorFactor" : [0.21176470588235305, 0.6627450980392162, 0.882352941176471, 1], "metallicFactor" : 1, "roughnessFactor" : 1}, "emissiveFactor" : [0, 0, 0], "alphaMode" : "OPAQUE", "doubleSided" : false}, {"name" : "_auto_1", "pbrMetallicRoughness" : {"baseColorFactor" : [0.21176470588235305, 0.6627450980392162, 0.882352941176471, 1], "metallicFactor" : 1, "roughnessFactor" : 1}, "emissiveFactor" : [0, 0, 0], "alphaMode" : "OPAQUE", "doubleSided" : false}, {"name" : "_auto_", "pbrMetallicRoughness" : {"baseColorFactor" : [0.9294117647058819, 0.9294117647058819, 0.9294117647058819, 0.5], "metallicFactor" : 1, "roughnessFactor" : 1}, "emissiveFactor" : [0, 0, 0], "alphaMode" : "BLEND", "doubleSided" : false}], "meshes" : [{"primitives" : [{"attributes" : {"POSITION" : 1, "NORMAL" : 2, "TEXCOORD_0" : 3}, "indices" : 0, "material" : 0, "mode" : 4}], "name" : ""}, {"primitives" : [{"attributes" : {"POSITION" : 5, "NORMAL" : 6, "TEXCOORD_0" : 7}, "indices" : 4, "material" : 1, "mode" : 4}], "name" : ""}, {"primitives" : [{"attributes" : {"POSITION" : 9, "NORMAL" : 10, "TEXCOORD_0" : 11}, "indices" : 8, "material" : 2, "mode" : 4}], "name" : ""}], "nodes" : [{"mesh" : 0, "name" : "Mesh1"}, {"children" : [0], "name" : "Componente_1"}, {"mesh" : 1, "name" : "Mesh2"}, {"children" : [2], "name" : "Componente_2"}, {"mesh" : 2, "name" : "Mesh3"}, {"children" : [4], "name" : "Componente_3"}, {"children" : [1, 3, 5], "name" : "LogoV2_dwg_2_1"}, {"children" : [6], "name" : "Model"}], "scene" : 0, "scenes" : [{"nodes" : [7]}]}